{"title":"Resident.Evil.Apocalypse.2004.SWESUB.DVDRip.XviD.AC3.-Zen_Bud","uid":5639191,"size":1478388870,"categoryP":"video","categoryS":"movies","magnet":"?xt=urn:btih:90004f008e4bf720d53c3c25899aeaf33f07f543&amp;dn=Resident.Evil.Apocalypse.2004.SWESUB.DVDRip.XviD.AC3.-Zen_Bud&amp;tr=udp%3A%2F%2Ftracker.openbittorrent.com%3A80&amp;tr=udp%3A%2F%2Fopen.demonii.com%3A1337&amp;tr=udp%3A%2F%2Ftracker.coppersurfer.tk%3A6969&amp;tr=udp%3A%2F%2Fexodus.desync.com%3A6969","seeders":1,"leechers":0,"uploader":"Zen_Bud","files":-1,"time":1277025071,"description":"General\nComplete name                    : Resident.Evil.Apocalypse.avi\nFormat                           : AVI\nFormat/Info                      : Audio Video Interleave\nFile size                        : 1.38 GiB\nDuration                         : 1h 33mn\nOverall bit rate                 : 2 099 Kbps\n\nVideo\n\nFormat                           : MPEG-4 Visual\nCodec ID/Hint                    : XviD\nDuration                         : 1h 33mn\nBit rate                         : 1 640 Kbps\nWidth                            : 720 pixels\nHeight                           : 488 pixels\nDisplay aspect ratio             : 2.0987\nStream size                      : 1.08 GiB (78%)\nWriting library                  : XviD 1.1.2 (UTC 2006-11-01)\n\nAudio\n\nFormat                           : AC-3\nDuration                         : 1h 33mn\nBit rate                         : 448 Kbps\nChannel(s)                       : 6 channels\nChannel positions                : Front: L C R, Side: L R, LFE\nSampling rate                    : 48.0 KHz\nStream size                      : 301 MiB (21%)\n\n\n","torrent":{"xt":"urn:btih:90004f008e4bf720d53c3c25899aeaf33f07f543","amp;dn":"Resident.Evil.Apocalypse.2004.SWESUB.DVDRip.XviD.AC3.-Zen_Bud","amp;tr":["udp%3A%2F%2Ftracker.openbittorrent.com%3A80","udp%3A%2F%2Fopen.demonii.com%3A1337","udp%3A%2F%2Ftracker.coppersurfer.tk%3A6969","udp%3A%2F%2Fexodus.desync.com%3A6969"],"infoHash":"90004f008e4bf720d53c3c25899aeaf33f07f543","infoHashBuffer":{"type":"Buffer","data":[144,0,79,0,142,75,247,32,213,60,60,37,137,154,234,243,63,7,245,67]},"announce":[],"urlList":[]}}